<svg width="20" height="12" viewBox="0 0 20 12" fill="none" xmlns="http://www.w3.org/2000/svg">
<path d="M5.39 11.196C4.70867 11.196 4.08333 11.0747 3.514 10.832C2.94467 10.58 2.45467 10.2207 2.044 9.754C1.63333 9.278 1.316 8.70867 1.092 8.046C0.868 7.374 0.756 6.618 0.756 5.778C0.756 4.938 0.868 4.18667 1.092 3.524C1.316 2.86133 1.63333 2.30133 2.044 1.844C2.45467 1.38667 2.94467 1.04133 3.514 0.807999C4.08333 0.565333 4.70867 0.444 5.39 0.444C6.08067 0.444 6.706 0.565333 7.266 0.807999C7.83533 1.05067 8.32533 1.40067 8.736 1.858C9.14667 2.306 9.464 2.86133 9.688 3.524C9.912 4.18667 10.024 4.938 10.024 5.778C10.024 6.618 9.912 7.374 9.688 8.046C9.464 8.70867 9.14667 9.278 8.736 9.754C8.32533 10.2207 7.83533 10.58 7.266 10.832C6.706 11.0747 6.08067 11.196 5.39 11.196ZM5.39 9.404C5.77267 9.404 6.118 9.32 6.426 9.152C6.74333 8.97467 7.00933 8.732 7.224 8.424C7.448 8.10667 7.616 7.724 7.728 7.276C7.84933 6.828 7.91 6.32867 7.91 5.778C7.91 4.64867 7.686 3.776 7.238 3.16C6.79933 2.53467 6.18333 2.222 5.39 2.222C4.59667 2.222 3.976 2.53467 3.528 3.16C3.08933 3.776 2.87 4.64867 2.87 5.778C2.87 6.32867 2.926 6.828 3.038 7.276C3.15933 7.724 3.32733 8.10667 3.542 8.424C3.766 8.732 4.032 8.97467 4.34 9.152C4.65733 9.32 5.00733 9.404 5.39 9.404ZM12.0474 0.64H14.1614L17.1714 6.156L18.2074 8.396H18.2774C18.2214 7.85467 18.1608 7.262 18.0954 6.618C18.0394 5.974 18.0114 5.358 18.0114 4.77V0.64H19.9714V11H17.8714L14.8754 5.456L13.8254 3.23H13.7554C13.8021 3.79 13.8534 4.38267 13.9094 5.008C13.9748 5.63333 14.0074 6.24467 14.0074 6.842V11H12.0474V0.64Z" fill="#03CF5D"/>
</svg>
